<mxfile host="app.diagrams.net" modified="2020-07-20T09:31:32.880Z" agent="5.0 (Windows NT 10.0; Win64; x64) AppleWebKit/537.36 (KHTML, like Gecko) Chrome/83.0.4103.106 Safari/537.36" etag="LvDoaCX-myR5RvKwHF0R" version="13.4.8" type="github">
  <diagram id="KN9LuwJD13Wm-13c54o-" name="第 1 页">
    <mxGraphModel dx="1422" dy="762" grid="1" gridSize="10" guides="1" tooltips="1" connect="1" arrows="1" fold="1" page="1" pageScale="1" pageWidth="827" pageHeight="1169" math="0" shadow="0">
      <root>
        <mxCell id="0" />
        <mxCell id="1" parent="0" />
        <mxCell id="3GgmhU6IlBDrXX-F4kS4-36" value="" style="rounded=0;whiteSpace=wrap;html=1;" vertex="1" parent="1">
          <mxGeometry x="340" y="85" width="450" height="125" as="geometry" />
        </mxCell>
        <mxCell id="3GgmhU6IlBDrXX-F4kS4-1" value="整栋" style="rounded=1;whiteSpace=wrap;html=1;" vertex="1" parent="1">
          <mxGeometry x="190" y="120" width="100" height="50" as="geometry" />
        </mxCell>
        <mxCell id="3GgmhU6IlBDrXX-F4kS4-2" value="客厅" style="rounded=1;whiteSpace=wrap;html=1;" vertex="1" parent="1">
          <mxGeometry x="190" y="300" width="100" height="50" as="geometry" />
        </mxCell>
        <mxCell id="3GgmhU6IlBDrXX-F4kS4-10" value="房源相册集" style="whiteSpace=wrap;html=1;aspect=fixed;" vertex="1" parent="1">
          <mxGeometry x="10" y="370" width="70" height="70" as="geometry" />
        </mxCell>
        <mxCell id="3GgmhU6IlBDrXX-F4kS4-11" value="" style="endArrow=classic;html=1;entryX=0;entryY=0.5;entryDx=0;entryDy=0;exitX=1;exitY=0.5;exitDx=0;exitDy=0;" edge="1" parent="1" source="3GgmhU6IlBDrXX-F4kS4-10" target="3GgmhU6IlBDrXX-F4kS4-1">
          <mxGeometry width="50" height="50" relative="1" as="geometry">
            <mxPoint x="70" y="220" as="sourcePoint" />
            <mxPoint x="440" y="370" as="targetPoint" />
          </mxGeometry>
        </mxCell>
        <mxCell id="3GgmhU6IlBDrXX-F4kS4-14" value="" style="endArrow=classic;html=1;entryX=0;entryY=0.5;entryDx=0;entryDy=0;exitX=1;exitY=0.5;exitDx=0;exitDy=0;" edge="1" parent="1" source="3GgmhU6IlBDrXX-F4kS4-10" target="3GgmhU6IlBDrXX-F4kS4-2">
          <mxGeometry width="50" height="50" relative="1" as="geometry">
            <mxPoint x="70" y="300" as="sourcePoint" />
            <mxPoint x="190" y="390" as="targetPoint" />
          </mxGeometry>
        </mxCell>
        <mxCell id="3GgmhU6IlBDrXX-F4kS4-26" value="1图片" style="shape=ext;rounded=1;html=1;whiteSpace=wrap;double=1;" vertex="1" parent="1">
          <mxGeometry x="360" y="105" width="80" height="40" as="geometry" />
        </mxCell>
        <mxCell id="3GgmhU6IlBDrXX-F4kS4-27" value="2视频" style="shape=ext;rounded=1;html=1;whiteSpace=wrap;double=1;" vertex="1" parent="1">
          <mxGeometry x="450" y="105" width="80" height="40" as="geometry" />
        </mxCell>
        <mxCell id="3GgmhU6IlBDrXX-F4kS4-28" value="3图片" style="shape=ext;rounded=1;html=1;whiteSpace=wrap;double=1;" vertex="1" parent="1">
          <mxGeometry x="560" y="105" width="80" height="40" as="geometry" />
        </mxCell>
        <mxCell id="3GgmhU6IlBDrXX-F4kS4-34" value="4视频" style="shape=ext;rounded=1;html=1;whiteSpace=wrap;double=1;" vertex="1" parent="1">
          <mxGeometry x="670" y="105" width="80" height="40" as="geometry" />
        </mxCell>
        <mxCell id="3GgmhU6IlBDrXX-F4kS4-37" value="banner：否" style="text;html=1;strokeColor=none;fillColor=none;align=center;verticalAlign=middle;whiteSpace=wrap;rounded=0;" vertex="1" parent="1">
          <mxGeometry x="370" y="160" width="70" height="20" as="geometry" />
        </mxCell>
        <mxCell id="3GgmhU6IlBDrXX-F4kS4-39" value="banner：否" style="text;html=1;strokeColor=none;fillColor=none;align=center;verticalAlign=middle;whiteSpace=wrap;rounded=0;" vertex="1" parent="1">
          <mxGeometry x="462" y="160" width="68" height="20" as="geometry" />
        </mxCell>
        <mxCell id="3GgmhU6IlBDrXX-F4kS4-40" value="banner：是" style="text;html=1;strokeColor=none;fillColor=none;align=center;verticalAlign=middle;whiteSpace=wrap;rounded=0;" vertex="1" parent="1">
          <mxGeometry x="572" y="160" width="68" height="20" as="geometry" />
        </mxCell>
        <mxCell id="3GgmhU6IlBDrXX-F4kS4-41" value="banner：否" style="text;html=1;strokeColor=none;fillColor=none;align=center;verticalAlign=middle;whiteSpace=wrap;rounded=0;" vertex="1" parent="1">
          <mxGeometry x="683" y="160" width="70" height="20" as="geometry" />
        </mxCell>
        <mxCell id="3GgmhU6IlBDrXX-F4kS4-89" value="" style="endArrow=none;dashed=1;html=1;dashPattern=1 3;strokeWidth=2;exitX=1;exitY=0.5;exitDx=0;exitDy=0;" edge="1" parent="1" source="3GgmhU6IlBDrXX-F4kS4-10">
          <mxGeometry width="50" height="50" relative="1" as="geometry">
            <mxPoint x="180" y="590" as="sourcePoint" />
            <mxPoint x="160" y="480" as="targetPoint" />
          </mxGeometry>
        </mxCell>
        <mxCell id="3GgmhU6IlBDrXX-F4kS4-90" value="。。。" style="text;html=1;strokeColor=none;fillColor=none;align=center;verticalAlign=middle;whiteSpace=wrap;rounded=0;" vertex="1" parent="1">
          <mxGeometry x="140" y="470" width="100" height="20" as="geometry" />
        </mxCell>
        <mxCell id="3GgmhU6IlBDrXX-F4kS4-91" value="" style="endArrow=classic;html=1;exitX=1;exitY=0.5;exitDx=0;exitDy=0;entryX=0;entryY=0.5;entryDx=0;entryDy=0;" edge="1" parent="1" source="3GgmhU6IlBDrXX-F4kS4-1" target="3GgmhU6IlBDrXX-F4kS4-36">
          <mxGeometry width="50" height="50" relative="1" as="geometry">
            <mxPoint x="180" y="290" as="sourcePoint" />
            <mxPoint x="230" y="240" as="targetPoint" />
          </mxGeometry>
        </mxCell>
        <mxCell id="3GgmhU6IlBDrXX-F4kS4-93" value="" style="endArrow=classic;html=1;exitX=1;exitY=0.5;exitDx=0;exitDy=0;entryX=0;entryY=0.5;entryDx=0;entryDy=0;" edge="1" parent="1" source="3GgmhU6IlBDrXX-F4kS4-2">
          <mxGeometry width="50" height="50" relative="1" as="geometry">
            <mxPoint x="310" y="165" as="sourcePoint" />
            <mxPoint x="340" y="325" as="targetPoint" />
          </mxGeometry>
        </mxCell>
        <mxCell id="3GgmhU6IlBDrXX-F4kS4-100" value="封面：否" style="text;html=1;strokeColor=none;fillColor=none;align=center;verticalAlign=middle;whiteSpace=wrap;rounded=0;" vertex="1" parent="1">
          <mxGeometry x="371" y="190" width="68" height="20" as="geometry" />
        </mxCell>
        <mxCell id="3GgmhU6IlBDrXX-F4kS4-101" value="封面：否" style="text;html=1;strokeColor=none;fillColor=none;align=center;verticalAlign=middle;whiteSpace=wrap;rounded=0;" vertex="1" parent="1">
          <mxGeometry x="683" y="190" width="68" height="20" as="geometry" />
        </mxCell>
        <mxCell id="3GgmhU6IlBDrXX-F4kS4-102" value="封面：否" style="text;html=1;strokeColor=none;fillColor=none;align=center;verticalAlign=middle;whiteSpace=wrap;rounded=0;" vertex="1" parent="1">
          <mxGeometry x="560" y="190" width="68" height="20" as="geometry" />
        </mxCell>
        <mxCell id="3GgmhU6IlBDrXX-F4kS4-103" value="封面：是" style="text;html=1;strokeColor=none;fillColor=none;align=center;verticalAlign=middle;whiteSpace=wrap;rounded=0;" vertex="1" parent="1">
          <mxGeometry x="459" y="190" width="68" height="20" as="geometry" />
        </mxCell>
        <mxCell id="3GgmhU6IlBDrXX-F4kS4-105" value="" style="rounded=0;whiteSpace=wrap;html=1;" vertex="1" parent="1">
          <mxGeometry x="340" y="262.5" width="450" height="125" as="geometry" />
        </mxCell>
        <mxCell id="3GgmhU6IlBDrXX-F4kS4-106" value="1图片" style="shape=ext;rounded=1;html=1;whiteSpace=wrap;double=1;" vertex="1" parent="1">
          <mxGeometry x="360" y="282.5" width="80" height="40" as="geometry" />
        </mxCell>
        <mxCell id="3GgmhU6IlBDrXX-F4kS4-107" value="2视频" style="shape=ext;rounded=1;html=1;whiteSpace=wrap;double=1;" vertex="1" parent="1">
          <mxGeometry x="450" y="282.5" width="80" height="40" as="geometry" />
        </mxCell>
        <mxCell id="3GgmhU6IlBDrXX-F4kS4-108" value="3图片" style="shape=ext;rounded=1;html=1;whiteSpace=wrap;double=1;" vertex="1" parent="1">
          <mxGeometry x="560" y="282.5" width="80" height="40" as="geometry" />
        </mxCell>
        <mxCell id="3GgmhU6IlBDrXX-F4kS4-109" value="4视频" style="shape=ext;rounded=1;html=1;whiteSpace=wrap;double=1;" vertex="1" parent="1">
          <mxGeometry x="670" y="282.5" width="80" height="40" as="geometry" />
        </mxCell>
        <mxCell id="3GgmhU6IlBDrXX-F4kS4-110" value="banner：否" style="text;html=1;strokeColor=none;fillColor=none;align=center;verticalAlign=middle;whiteSpace=wrap;rounded=0;" vertex="1" parent="1">
          <mxGeometry x="370" y="337.5" width="70" height="20" as="geometry" />
        </mxCell>
        <mxCell id="3GgmhU6IlBDrXX-F4kS4-111" value="banner：否" style="text;html=1;strokeColor=none;fillColor=none;align=center;verticalAlign=middle;whiteSpace=wrap;rounded=0;" vertex="1" parent="1">
          <mxGeometry x="462" y="337.5" width="68" height="20" as="geometry" />
        </mxCell>
        <mxCell id="3GgmhU6IlBDrXX-F4kS4-112" value="banner：是" style="text;html=1;strokeColor=none;fillColor=none;align=center;verticalAlign=middle;whiteSpace=wrap;rounded=0;" vertex="1" parent="1">
          <mxGeometry x="572" y="337.5" width="68" height="20" as="geometry" />
        </mxCell>
        <mxCell id="3GgmhU6IlBDrXX-F4kS4-113" value="banner：否" style="text;html=1;strokeColor=none;fillColor=none;align=center;verticalAlign=middle;whiteSpace=wrap;rounded=0;" vertex="1" parent="1">
          <mxGeometry x="683" y="337.5" width="70" height="20" as="geometry" />
        </mxCell>
        <mxCell id="3GgmhU6IlBDrXX-F4kS4-114" value="封面：否" style="text;html=1;strokeColor=none;fillColor=none;align=center;verticalAlign=middle;whiteSpace=wrap;rounded=0;" vertex="1" parent="1">
          <mxGeometry x="371" y="367.5" width="68" height="20" as="geometry" />
        </mxCell>
        <mxCell id="3GgmhU6IlBDrXX-F4kS4-115" value="封面：否" style="text;html=1;strokeColor=none;fillColor=none;align=center;verticalAlign=middle;whiteSpace=wrap;rounded=0;" vertex="1" parent="1">
          <mxGeometry x="683" y="367.5" width="68" height="20" as="geometry" />
        </mxCell>
        <mxCell id="3GgmhU6IlBDrXX-F4kS4-116" value="封面：否" style="text;html=1;strokeColor=none;fillColor=none;align=center;verticalAlign=middle;whiteSpace=wrap;rounded=0;" vertex="1" parent="1">
          <mxGeometry x="560" y="367.5" width="68" height="20" as="geometry" />
        </mxCell>
        <mxCell id="3GgmhU6IlBDrXX-F4kS4-117" value="封面：否" style="text;html=1;strokeColor=none;fillColor=none;align=center;verticalAlign=middle;whiteSpace=wrap;rounded=0;" vertex="1" parent="1">
          <mxGeometry x="459" y="367.5" width="68" height="20" as="geometry" />
        </mxCell>
        <mxCell id="3GgmhU6IlBDrXX-F4kS4-119" value="" style="rounded=0;whiteSpace=wrap;html=1;" vertex="1" parent="1">
          <mxGeometry x="120" y="560" width="280" height="210" as="geometry" />
        </mxCell>
        <mxCell id="3GgmhU6IlBDrXX-F4kS4-120" value="视频" style="text;html=1;strokeColor=none;fillColor=none;align=center;verticalAlign=middle;whiteSpace=wrap;rounded=0;" vertex="1" parent="1">
          <mxGeometry x="210" y="735" width="40" height="20" as="geometry" />
        </mxCell>
        <mxCell id="3GgmhU6IlBDrXX-F4kS4-121" value="图片" style="text;html=1;strokeColor=none;fillColor=none;align=center;verticalAlign=middle;whiteSpace=wrap;rounded=0;" vertex="1" parent="1">
          <mxGeometry x="260" y="735" width="40" height="20" as="geometry" />
        </mxCell>
        <mxCell id="3GgmhU6IlBDrXX-F4kS4-122" value="详情页面" style="text;html=1;strokeColor=none;fillColor=none;align=center;verticalAlign=middle;whiteSpace=wrap;rounded=0;" vertex="1" parent="1">
          <mxGeometry x="220" y="780" width="60" height="20" as="geometry" />
        </mxCell>
        <mxCell id="3GgmhU6IlBDrXX-F4kS4-123" value="视频封面，聚焦播放" style="rounded=0;whiteSpace=wrap;html=1;" vertex="1" parent="1">
          <mxGeometry x="460" y="560" width="280" height="210" as="geometry" />
        </mxCell>
        <mxCell id="3GgmhU6IlBDrXX-F4kS4-126" value="列表页" style="text;html=1;strokeColor=none;fillColor=none;align=center;verticalAlign=middle;whiteSpace=wrap;rounded=0;" vertex="1" parent="1">
          <mxGeometry x="560" y="780" width="60" height="20" as="geometry" />
        </mxCell>
      </root>
    </mxGraphModel>
  </diagram>
</mxfile>
